<svg width="1278" height="338" viewBox="0 0 1278 338" fill="none" xmlns="http://www.w3.org/2000/svg">
<path fill-rule="evenodd" clip-rule="evenodd" d="M0 76.2812L21.6273 112.694C44.393 149.107 88.7859 221.933 132.041 235.588C176.434 250.381 220.827 207.141 265.22 170.728C309.612 134.315 352.867 104.729 397.26 89.9361C441.653 76.2812 486.046 76.2812 529.301 112.694C573.694 149.107 618.087 221.933 662.48 243.554C706.873 265.174 750.127 235.588 794.52 185.52C838.913 134.315 883.306 61.4884 927.699 25.0754C970.954 -11.3377 1015.35 -11.3377 1059.74 46.6956C1104.13 104.729 1147.39 221.933 1191.78 228.761C1236.17 235.588 1280.57 134.315 1324.96 112.694C1368.21 89.9361 1412.61 149.107 1435.37 177.555L1457 207.141V338H1435.37C1412.61 338 1368.21 338 1324.96 338C1280.57 338 1236.17 338 1191.78 338C1147.39 338 1104.13 338 1059.74 338C1015.35 338 970.954 338 927.699 338C883.306 338 838.913 338 794.52 338C750.127 338 706.873 338 662.48 338C618.087 338 573.694 338 529.301 338C486.046 338 441.653 338 397.26 338C352.867 338 309.612 338 265.22 338C220.827 338 176.434 338 132.041 338C88.7859 338 44.393 338 21.6273 338H0V76.2812Z" fill="#6A1F6A" fill-opacity="0.6"/>
</svg>
