<svg width="1278" height="521" viewBox="0 0 1278 521" fill="none" xmlns="http://www.w3.org/2000/svg">
<path fill-rule="evenodd" clip-rule="evenodd" d="M0 307.236L30 290.608C61 272.595 122 236.569 183 254.582C244 272.595 305 343.263 366 343.263C427 343.263 488 272.595 549 228.255C610 183.915 670 165.901 731 183.915C792 201.928 853 254.582 914 290.608C975 325.249 1036 343.263 1097 351.576C1158 361.276 1219 361.276 1250 361.276H1280V520.624H1250C1219 520.624 1158 520.624 1097 520.624C1036 520.624 975 520.624 914 520.624C853 520.624 792 520.624 731 520.624C670 520.624 610 520.624 549 520.624C488 520.624 427 520.624 366 520.624C305 520.624 244 520.624 183 520.624C122 520.624 61 520.624 30 520.624H0V307.236Z" fill="#A23405"/>
<path fill-rule="evenodd" clip-rule="evenodd" d="M767.756 0C818.937 0 842.756 48.4063 842.756 99.4945C842.756 140.221 808.556 160 767.756 160C734.474 160 709.16 141.038 712.257 99.4945C715.756 52.5381 722.341 0 767.756 0Z" fill="#A23405"/>
</svg>
