<svg width="1278" height="344" viewBox="0 0 1278 344" fill="none" xmlns="http://www.w3.org/2000/svg">
<path fill-rule="evenodd" clip-rule="evenodd" d="M0 130.236L30 113.608C61 95.5953 122 59.5688 183 77.582C244 95.5952 305 166.263 366 166.263C427 166.263 488 95.5953 549 51.255C610 6.91473 670 -11.0985 731 6.91473C792 24.928 853 77.582 914 113.608C975 148.249 1036 166.263 1097 174.576C1158 184.276 1219 184.276 1250 184.276H1280V343.624H1250C1219 343.624 1158 343.624 1097 343.624C1036 343.624 975 343.624 914 343.624C853 343.624 792 343.624 731 343.624C670 343.624 610 343.624 549 343.624C488 343.624 427 343.624 366 343.624C305 343.624 244 343.624 183 343.624C122 343.624 61 343.624 30 343.624H0V130.236Z" fill="#A23405"/>
</svg>
